<svg width="84" height="66" viewBox="0 0 84 66" fill="none" xmlns="http://www.w3.org/2000/svg">
<path d="M5.16668 0.333344H78.8333V6.00001H5.16668V0.333344ZM30.049 6.00001H24.1727C20.2684 17.6365 8.70268 21.2972 1.87435 22.4532L0.681519 28.423C10.8985 27.267 25.8982 21.6145 30.049 6.00001Z" fill="#5D9040"/>
<path d="M83.3185 28.423L82.1256 22.4532C75.2973 21.2972 63.7345 17.6337 59.8273 6H53.951C58.099 21.6145 73.1015 27.267 83.3185 28.423ZM39.1666 6V65.7578L42 58.2892L44.8333 65.7578V6H39.1666Z" fill="#5D9040"/>
<path d="M42.4222 54.1667H42V48.5H42.4222C44.5641 48.4985 46.6178 47.647 48.1324 46.1324C49.647 44.6179 50.4985 42.5641 50.5 40.4222V3.16669H56.1667V40.4222C56.1629 44.0663 54.7136 47.5601 52.1369 50.1369C49.5601 52.7136 46.0663 54.1629 42.4222 54.1667Z" fill="#5D9040"/>
</svg>
